<svg width="97" height="32" viewBox="0 0 97 32" fill="none" xmlns="http://www.w3.org/2000/svg">
<path d="M8.06348 22.2891L12.2505 8.22656H16.3276L10.1387 26H7.45312L8.06348 22.2891ZM4.20605 8.22656L8.38086 22.2891L9.01562 26H6.30566L0.15332 8.22656H4.20605ZM25.3354 23.0215V17.1377C25.3354 16.7145 25.2663 16.3524 25.1279 16.0513C24.9896 15.742 24.7739 15.502 24.481 15.3311C24.1961 15.1602 23.8258 15.0747 23.3701 15.0747C22.9795 15.0747 22.6418 15.1439 22.3569 15.2822C22.0721 15.4124 21.8524 15.6037 21.6978 15.856C21.5431 16.1001 21.4658 16.389 21.4658 16.7227H17.9502C17.9502 16.1611 18.0804 15.6281 18.3408 15.1235C18.6012 14.619 18.9797 14.1755 19.4761 13.793C19.9725 13.4023 20.5625 13.0972 21.2461 12.8774C21.9378 12.6577 22.7109 12.5479 23.5654 12.5479C24.5908 12.5479 25.5023 12.7188 26.2998 13.0605C27.0973 13.4023 27.724 13.915 28.1797 14.5986C28.6436 15.2822 28.8755 16.1367 28.8755 17.1621V22.814C28.8755 23.5382 28.9202 24.1323 29.0098 24.5962C29.0993 25.0519 29.2295 25.4507 29.4004 25.7925V26H25.8481C25.6772 25.6419 25.547 25.1943 25.4575 24.6572C25.3761 24.112 25.3354 23.5667 25.3354 23.0215ZM25.7993 17.9556L25.8237 19.9453H23.8584C23.3945 19.9453 22.9917 19.9982 22.6499 20.104C22.3081 20.2098 22.0273 20.3604 21.8076 20.5557C21.5879 20.7428 21.4251 20.9626 21.3193 21.2148C21.2217 21.4671 21.1729 21.7438 21.1729 22.0449C21.1729 22.346 21.242 22.6187 21.3804 22.8628C21.5187 23.0988 21.7181 23.286 21.9785 23.4243C22.2389 23.5545 22.5441 23.6196 22.894 23.6196C23.423 23.6196 23.8828 23.5138 24.2734 23.3022C24.6641 23.0907 24.9652 22.8302 25.1768 22.521C25.3965 22.2118 25.5104 21.9188 25.5186 21.6421L26.4463 23.1313C26.3161 23.465 26.137 23.8109 25.9092 24.1689C25.6895 24.527 25.4087 24.8647 25.0669 25.1821C24.7251 25.4914 24.3141 25.7477 23.834 25.9512C23.3538 26.1465 22.7842 26.2441 22.125 26.2441C21.2868 26.2441 20.5259 26.0773 19.8423 25.7437C19.1668 25.4019 18.6297 24.9339 18.231 24.3398C17.8403 23.7376 17.645 23.054 17.645 22.2891C17.645 21.5973 17.7752 20.9829 18.0356 20.4458C18.2961 19.9087 18.6785 19.457 19.1831 19.0908C19.6958 18.7165 20.3346 18.4357 21.0996 18.2485C21.8646 18.0532 22.7516 17.9556 23.7607 17.9556H25.7993Z" fill="#0099FF"/>
<path d="M39.7632 18.1997H35.1978L35.1733 15.6851H39.0063C39.6818 15.6851 40.2352 15.5996 40.6665 15.4287C41.0978 15.2497 41.4193 14.9933 41.6309 14.6597C41.8506 14.3179 41.9604 13.9028 41.9604 13.4146C41.9604 12.8612 41.8547 12.4136 41.6431 12.0718C41.4396 11.73 41.1182 11.4818 40.6787 11.3271C40.2474 11.1725 39.6899 11.0952 39.0063 11.0952H36.4673V26H32.8052V8.22656H39.0063C40.0399 8.22656 40.9635 8.32422 41.7773 8.51953C42.5993 8.71484 43.2951 9.01188 43.8647 9.41064C44.4344 9.80941 44.8698 10.314 45.1709 10.9243C45.472 11.5265 45.6226 12.2427 45.6226 13.0728C45.6226 13.8052 45.4557 14.4806 45.1221 15.0991C44.7965 15.7176 44.2798 16.2222 43.5718 16.6128C42.8719 17.0034 41.9564 17.2191 40.8252 17.2598L39.7632 18.1997ZM39.6045 26H34.1968L35.625 23.1436H39.6045C40.2474 23.1436 40.7723 23.0418 41.1792 22.8384C41.5861 22.6268 41.8872 22.342 42.0825 21.9839C42.2778 21.6258 42.3755 21.2148 42.3755 20.751C42.3755 20.2301 42.286 19.7785 42.1069 19.396C41.936 19.0135 41.6593 18.7205 41.2769 18.5171C40.8944 18.3055 40.3898 18.1997 39.7632 18.1997H36.2354L36.2598 15.6851H40.6543L41.4966 16.6738C42.5789 16.6576 43.4497 16.8488 44.1089 17.2476C44.7762 17.6382 45.2604 18.1468 45.5615 18.7734C45.8708 19.4001 46.0254 20.0715 46.0254 20.7876C46.0254 21.9269 45.7772 22.8872 45.2808 23.6685C44.7843 24.4416 44.056 25.0234 43.0957 25.4141C42.1436 25.8047 40.9798 26 39.6045 26ZM56.6812 23.0215V17.1377C56.6812 16.7145 56.612 16.3524 56.4736 16.0513C56.3353 15.742 56.1196 15.502 55.8267 15.3311C55.5418 15.1602 55.1715 15.0747 54.7158 15.0747C54.3252 15.0747 53.9875 15.1439 53.7026 15.2822C53.4178 15.4124 53.1981 15.6037 53.0435 15.856C52.8888 16.1001 52.8115 16.389 52.8115 16.7227H49.2959C49.2959 16.1611 49.4261 15.6281 49.6865 15.1235C49.9469 14.619 50.3254 14.1755 50.8218 13.793C51.3182 13.4023 51.9082 13.0972 52.5918 12.8774C53.2835 12.6577 54.0566 12.5479 54.9111 12.5479C55.9365 12.5479 56.848 12.7188 57.6455 13.0605C58.443 13.4023 59.0697 13.915 59.5254 14.5986C59.9893 15.2822 60.2212 16.1367 60.2212 17.1621V22.814C60.2212 23.5382 60.266 24.1323 60.3555 24.5962C60.445 25.0519 60.5752 25.4507 60.7461 25.7925V26H57.1938C57.0229 25.6419 56.8927 25.1943 56.8032 24.6572C56.7218 24.112 56.6812 23.5667 56.6812 23.0215ZM57.145 17.9556L57.1694 19.9453H55.2041C54.7402 19.9453 54.3374 19.9982 53.9956 20.104C53.6538 20.2098 53.373 20.3604 53.1533 20.5557C52.9336 20.7428 52.7708 20.9626 52.665 21.2148C52.5674 21.4671 52.5186 21.7438 52.5186 22.0449C52.5186 22.346 52.5877 22.6187 52.7261 22.8628C52.8644 23.0988 53.0638 23.286 53.3242 23.4243C53.5846 23.5545 53.8898 23.6196 54.2397 23.6196C54.7687 23.6196 55.2285 23.5138 55.6191 23.3022C56.0098 23.0907 56.3109 22.8302 56.5225 22.521C56.7422 22.2118 56.8561 21.9188 56.8643 21.6421L57.792 23.1313C57.6618 23.465 57.4827 23.8109 57.2549 24.1689C57.0352 24.527 56.7544 24.8647 56.4126 25.1821C56.0708 25.4914 55.6598 25.7477 55.1797 25.9512C54.6995 26.1465 54.1299 26.2441 53.4707 26.2441C52.6325 26.2441 51.8716 26.0773 51.188 25.7437C50.5125 25.4019 49.9754 24.9339 49.5767 24.3398C49.186 23.7376 48.9907 23.054 48.9907 22.2891C48.9907 21.5973 49.1209 20.9829 49.3813 20.4458C49.6418 19.9087 50.0243 19.457 50.5288 19.0908C51.0415 18.7165 51.6803 18.4357 52.4453 18.2485C53.2103 18.0532 54.0973 17.9556 55.1064 17.9556H57.145ZM67.3735 15.6118V26H63.8579V12.792H67.1538L67.3735 15.6118ZM66.8608 18.9321H65.9087C65.9087 17.9556 66.0348 17.0767 66.2871 16.2954C66.5394 15.506 66.8934 14.8346 67.3491 14.2812C67.8049 13.7197 68.346 13.2925 68.9727 12.9995C69.6074 12.6984 70.3154 12.5479 71.0967 12.5479C71.7152 12.5479 72.2808 12.6374 72.7935 12.8164C73.3062 12.9954 73.7456 13.2803 74.1118 13.6709C74.4862 14.0615 74.771 14.5783 74.9663 15.2212C75.1698 15.8641 75.2715 16.6494 75.2715 17.5771V26H71.7314V17.5649C71.7314 16.979 71.6501 16.5233 71.4873 16.1978C71.3245 15.8722 71.0845 15.6444 70.7671 15.5142C70.4578 15.3758 70.0754 15.3066 69.6196 15.3066C69.1476 15.3066 68.7367 15.4002 68.3867 15.5874C68.0449 15.7746 67.7601 16.035 67.5322 16.3687C67.3125 16.6942 67.1457 17.0767 67.0317 17.5161C66.9178 17.9556 66.8608 18.4276 66.8608 18.9321ZM82.4604 7.23779V26H78.9448V7.23779H82.4604ZM90.7856 12.792L85.0483 19.335L81.9722 22.4478L80.6904 19.9087L83.1318 16.8081L86.562 12.792H90.7856ZM87.1357 26L83.2295 19.8965L85.6587 17.7725L91.1885 26H87.1357Z" fill="white"/>
<path d="M58 5C64.4626 1.98151 81.1102 -2.24439 96 5" stroke="#0099FF"/>
</svg>
